<svg id="Layer_1" data-name="Layer 1" xmlns="http://www.w3.org/2000/svg" viewBox="0 0 334.01 323.76"><defs><style>.cls-1{fill:#fff;}.cls-1,.cls-2,.cls-3,.cls-9{stroke:#231f20;stroke-linejoin:round;stroke-width:5.86px;}.cls-2{fill:#a7a9ac;}.cls-3{fill:#f1f2f2;}.cls-4{fill:#ffcb31;}.cls-5{fill:#e6e7e8;}.cls-6{fill:#d1d3d4;}.cls-7{fill:#19b590;}.cls-8{fill:#808285;}.cls-9{fill:none;opacity:0.2;}</style></defs><title>budget-planing</title><path class="cls-1" d="M191.78,43.71a14,14,0,0,0-3.6-.56H41.67c-8.15,0-13.39,6-13.39,13.11V299.52H180.64V56.26C180.64,50.3,185.54,45.22,191.78,43.71Z" transform="translate(-25.35 -19.71)"/><path class="cls-1" d="M191.95,279.65a18,18,0,0,0,4.08.82H342.54a13.7,13.7,0,0,0,13.9-13.62V22.64H202.61V266.85C202.61,272.81,198.18,278.15,191.95,279.65Z" transform="translate(-25.35 -19.71)"/><path class="cls-2" d="M191.62,43.8c-6.24,1.51-11,6.51-11,12.46v210.6c0,6,4.75,11,11,12.46,6.24-1.51,11-6.5,11-12.46V56.26C202.61,50.3,197.87,45.3,191.62,43.8Z" transform="translate(-25.35 -19.71)"/><line class="cls-3" x1="155.29" y1="42.48" x2="165.54" y2="42.48"/><line class="cls-3" x1="155.29" y1="240.25" x2="165.54" y2="240.25"/><line class="cls-3" x1="23.44" y1="52.74" x2="46.88" y2="52.74"/><line class="cls-3" x1="23.44" y1="67.39" x2="134.78" y2="67.39"/><line class="cls-3" x1="23.44" y1="235.86" x2="52.74" y2="235.86"/><line class="cls-3" x1="68.85" y1="235.86" x2="95.22" y2="235.86"/><line class="cls-3" x1="200.7" y1="188.98" x2="257.83" y2="188.98"/><line class="cls-3" x1="269.55" y1="188.98" x2="287.13" y2="188.98"/><line class="cls-3" x1="309.11" y1="230" x2="265.16" y2="230"/><line class="cls-3" x1="309.11" y1="209.49" x2="200.7" y2="209.49"/><line class="cls-3" x1="254.9" y1="230" x2="240.25" y2="230"/><line class="cls-3" x1="234.39" y1="23.44" x2="257.83" y2="23.44"/><line class="cls-3" x1="234.39" y1="38.09" x2="257.83" y2="38.09"/><circle class="cls-4" cx="212.97" cy="29.31" r="13.47"/><rect class="cls-5" x="200.7" y="57.13" width="108.41" height="38.09"/><rect class="cls-5" x="200.7" y="105.48" width="60.06" height="61.53"/><line class="cls-3" x1="271.02" y1="114.27" x2="309.11" y2="114.27"/><line class="cls-3" x1="271.02" y1="128.92" x2="309.11" y2="128.92"/><line class="cls-3" x1="271.02" y1="143.57" x2="309.11" y2="143.57"/><line class="cls-3" x1="271.02" y1="158.22" x2="309.11" y2="158.22"/><path class="cls-4" d="M78.47,169.14a24.56,24.56,0,0,1,7.25-18.24L64.47,129.71a55.32,55.32,0,0,0-16.41,39.43Z" transform="translate(-25.35 -19.71)"/><path class="cls-6" d="M78.47,169.14H48.07a55,55,0,0,0,16.15,39.49L86,186.94A26.52,26.52,0,0,1,78.47,169.14Z" transform="translate(-25.35 -19.71)"/><path class="cls-5" d="M86,150.49a25.64,25.64,0,1,1,0,36.25L64.22,208.49l.25.26a56,56,0,1,0,0-79.25l21.25,21.25Z" transform="translate(-25.35 -19.71)"/><line class="cls-3" x1="60.37" y1="131.05" x2="31.99" y2="103.52"/><line class="cls-3" x1="16.11" y1="149.43" x2="52.74" y2="149.43"/><path class="cls-7" d="M267.07,151.61a10.37,10.37,0,0,0-10.64-10.31H128.72c-5.88,0-11.07,4.43-11.07,10.31v32.17H267.07Z" transform="translate(-25.35 -19.71)"/><path class="cls-8" d="M117.65,183.79V332.54a11.26,11.26,0,0,0,11.07,10.93H256.43a10.89,10.89,0,0,0,10.64-10.93V183.79Z" transform="translate(-25.35 -19.71)"/><rect class="cls-2" x="106.94" y="175.8" width="21.97" height="11.72"/><rect class="cls-2" x="139.17" y="175.8" width="23.44" height="11.72"/><rect class="cls-2" x="172.87" y="175.8" width="21.97" height="11.72"/><rect class="cls-2" x="205.1" y="175.8" width="21.97" height="11.72"/><rect class="cls-2" x="106.94" y="200.7" width="21.97" height="20.51"/><rect class="cls-2" x="139.17" y="200.7" width="23.44" height="20.51"/><rect class="cls-2" x="172.87" y="200.7" width="21.97" height="20.51"/><rect class="cls-2" x="205.1" y="200.7" width="21.97" height="20.51"/><rect class="cls-2" x="106.94" y="231.46" width="21.97" height="19.04"/><rect class="cls-2" x="139.17" y="231.46" width="23.44" height="19.04"/><rect class="cls-2" x="172.87" y="231.46" width="21.97" height="19.04"/><rect class="cls-2" x="106.94" y="260.76" width="21.97" height="19.04"/><rect class="cls-2" x="139.17" y="260.76" width="23.44" height="19.04"/><polygon class="cls-2" points="205.1 231.47 205.1 260.76 172.87 260.76 172.87 279.81 205.36 279.81 227.07 279.81 227.07 261.38 227.07 231.47 205.1 231.47"/><rect class="cls-2" x="106.94" y="291.53" width="21.97" height="19.04"/><rect class="cls-2" x="139.17" y="291.53" width="55.67" height="19.04"/><rect class="cls-2" x="205.1" y="291.53" width="21.97" height="19.04"/><line class="cls-9" x1="118.66" y1="137.71" x2="193.38" y2="137.71"/><line class="cls-9" x1="203.63" y1="137.71" x2="210.96" y2="137.71"/><line class="cls-9" x1="140.64" y1="149.43" x2="181.66" y2="149.43"/></svg>