<svg id="c5d47862-a581-4f36-884f-66aadbc39ee3" data-name="Layer 1" xmlns="http://www.w3.org/2000/svg" viewBox="0 0 1140.04 323.76"><defs><style>.\32 418b479-54ca-4c2b-afae-b22b54a6dce8{fill:#fff;}.\32 418b479-54ca-4c2b-afae-b22b54a6dce8,.\38 6b32eb4-3750-4b39-9393-215148abdc08,.a2886284-c17c-4b80-9d00-3393d10dc38a,.e7e18351-d223-4ec1-b70d-ffc1d554afa3{stroke:#4a148c;stroke-linejoin:round;stroke-width:5.86px;}.e7e18351-d223-4ec1-b70d-ffc1d554afa3{fill:#a7a9ac;}.a2886284-c17c-4b80-9d00-3393d10dc38a{fill:#f1f2f2;}.e098548b-a6be-4ae7-90e7-6914a6aec893{fill:#ffcb31;}.\33 a84598b-e82d-48bb-9207-81f6bd3eb2d0{fill:#e6e7e8;}.b2642ad6-661b-4910-b31f-ba13d5a2e7d7{fill:#d1d3d4;}.f34f249b-4742-492b-b014-e4cc952c7cc6{fill:#ab47bc;}.\34 91b3447-b967-4f21-9594-41ee7aa86a5b{fill:#808285;}.\38 6b32eb4-3750-4b39-9393-215148abdc08{fill:none;opacity:0.2;}.\32 d23fed4-aea5-4488-96ab-7142ddb8bf42{font-size:127.57px;}.\32 d23fed4-aea5-4488-96ab-7142ddb8bf42,.\36 f5e1413-62b4-4cd3-8780-c18789d0866b{fill:#4a148c;font-family:HelveticaNeue-Bold, Helvetica Neue;}.\38 82c13b3-91e4-4e91-9e38-9e0e627dc078{font-weight:700;}.\34 e7f9a27-3ce6-4dea-8d20-16385d9fb850{font-family:HelveticaNeue-Light, Helvetica Neue;}.\36 f5e1413-62b4-4cd3-8780-c18789d0866b{font-size:36px;}.\32 8889759-d8c4-4ae7-bb14-a1a1f490164a{font-family:HelveticaNeue, Helvetica Neue;}</style></defs><title>budgetLogo</title><path class="2418b479-54ca-4c2b-afae-b22b54a6dce8" d="M314.78,229.71a14,14,0,0,0-3.6-.56H164.67c-8.15,0-13.39,6-13.39,13.11V485.52H303.64V242.26C303.64,236.3,308.54,231.22,314.78,229.71Z" transform="translate(-148.35 -205.71)"/><path class="2418b479-54ca-4c2b-afae-b22b54a6dce8" d="M314.95,465.65a18,18,0,0,0,4.08.82H465.54a13.7,13.7,0,0,0,13.9-13.62V208.64H325.61V452.85C325.61,458.81,321.18,464.15,314.95,465.65Z" transform="translate(-148.35 -205.71)"/><path class="e7e18351-d223-4ec1-b70d-ffc1d554afa3" d="M314.62,229.8c-6.24,1.51-11,6.51-11,12.46v210.6c0,6,4.75,11,11,12.46,6.24-1.51,11-6.5,11-12.46V242.26C325.61,236.3,320.87,231.3,314.62,229.8Z" transform="translate(-148.35 -205.71)"/><line class="a2886284-c17c-4b80-9d00-3393d10dc38a" x1="155.29" y1="42.48" x2="165.54" y2="42.48"/><line class="a2886284-c17c-4b80-9d00-3393d10dc38a" x1="155.29" y1="240.25" x2="165.54" y2="240.25"/><line class="a2886284-c17c-4b80-9d00-3393d10dc38a" x1="23.44" y1="52.74" x2="46.88" y2="52.74"/><line class="a2886284-c17c-4b80-9d00-3393d10dc38a" x1="23.44" y1="67.39" x2="134.78" y2="67.39"/><line class="a2886284-c17c-4b80-9d00-3393d10dc38a" x1="23.44" y1="235.86" x2="52.74" y2="235.86"/><line class="a2886284-c17c-4b80-9d00-3393d10dc38a" x1="68.85" y1="235.86" x2="95.22" y2="235.86"/><line class="a2886284-c17c-4b80-9d00-3393d10dc38a" x1="200.7" y1="188.98" x2="257.83" y2="188.98"/><line class="a2886284-c17c-4b80-9d00-3393d10dc38a" x1="269.55" y1="188.98" x2="287.13" y2="188.98"/><line class="a2886284-c17c-4b80-9d00-3393d10dc38a" x1="309.11" y1="230" x2="265.16" y2="230"/><line class="a2886284-c17c-4b80-9d00-3393d10dc38a" x1="309.11" y1="209.49" x2="200.7" y2="209.49"/><line class="a2886284-c17c-4b80-9d00-3393d10dc38a" x1="254.9" y1="230" x2="240.25" y2="230"/><line class="a2886284-c17c-4b80-9d00-3393d10dc38a" x1="234.39" y1="23.44" x2="257.83" y2="23.44"/><line class="a2886284-c17c-4b80-9d00-3393d10dc38a" x1="234.39" y1="38.09" x2="257.83" y2="38.09"/><circle class="e098548b-a6be-4ae7-90e7-6914a6aec893" cx="212.97" cy="29.31" r="13.47"/><rect class="3a84598b-e82d-48bb-9207-81f6bd3eb2d0" x="200.7" y="57.13" width="108.41" height="38.09"/><rect class="3a84598b-e82d-48bb-9207-81f6bd3eb2d0" x="200.7" y="105.48" width="60.06" height="61.53"/><line class="a2886284-c17c-4b80-9d00-3393d10dc38a" x1="271.02" y1="114.27" x2="309.11" y2="114.27"/><line class="a2886284-c17c-4b80-9d00-3393d10dc38a" x1="271.02" y1="128.92" x2="309.11" y2="128.92"/><line class="a2886284-c17c-4b80-9d00-3393d10dc38a" x1="271.02" y1="143.57" x2="309.11" y2="143.57"/><line class="a2886284-c17c-4b80-9d00-3393d10dc38a" x1="271.02" y1="158.22" x2="309.11" y2="158.22"/><path class="e098548b-a6be-4ae7-90e7-6914a6aec893" d="M201.47,355.14a24.56,24.56,0,0,1,7.25-18.24l-21.25-21.18a55.32,55.32,0,0,0-16.41,39.43Z" transform="translate(-148.35 -205.71)"/><path class="b2642ad6-661b-4910-b31f-ba13d5a2e7d7" d="M201.47,355.14h-30.4a55,55,0,0,0,16.15,39.49L209,372.94A26.52,26.52,0,0,1,201.47,355.14Z" transform="translate(-148.35 -205.71)"/><path class="3a84598b-e82d-48bb-9207-81f6bd3eb2d0" d="M209,336.49a25.64,25.64,0,1,1,0,36.25l-21.75,21.75.25.26a56,56,0,1,0,0-79.25l21.25,21.25Z" transform="translate(-148.35 -205.71)"/><line class="a2886284-c17c-4b80-9d00-3393d10dc38a" x1="60.37" y1="131.05" x2="31.99" y2="103.52"/><line class="a2886284-c17c-4b80-9d00-3393d10dc38a" x1="16.11" y1="149.43" x2="52.74" y2="149.43"/><path class="f34f249b-4742-492b-b014-e4cc952c7cc6" d="M390.07,337.61a10.37,10.37,0,0,0-10.64-10.31H251.72c-5.88,0-11.07,4.43-11.07,10.31v32.17H390.07Z" transform="translate(-148.35 -205.71)"/><path class="491b3447-b967-4f21-9594-41ee7aa86a5b" d="M240.65,369.79V518.54a11.26,11.26,0,0,0,11.07,10.93H379.43a10.89,10.89,0,0,0,10.64-10.93V369.79Z" transform="translate(-148.35 -205.71)"/><rect class="e7e18351-d223-4ec1-b70d-ffc1d554afa3" x="106.94" y="175.8" width="21.97" height="11.72"/><rect class="e7e18351-d223-4ec1-b70d-ffc1d554afa3" x="139.17" y="175.8" width="23.44" height="11.72"/><rect class="e7e18351-d223-4ec1-b70d-ffc1d554afa3" x="172.87" y="175.8" width="21.97" height="11.72"/><rect class="e7e18351-d223-4ec1-b70d-ffc1d554afa3" x="205.1" y="175.8" width="21.97" height="11.72"/><rect class="e7e18351-d223-4ec1-b70d-ffc1d554afa3" x="106.94" y="200.7" width="21.97" height="20.51"/><rect class="e7e18351-d223-4ec1-b70d-ffc1d554afa3" x="139.17" y="200.7" width="23.44" height="20.51"/><rect class="e7e18351-d223-4ec1-b70d-ffc1d554afa3" x="172.87" y="200.7" width="21.97" height="20.51"/><rect class="e7e18351-d223-4ec1-b70d-ffc1d554afa3" x="205.1" y="200.7" width="21.97" height="20.51"/><rect class="e7e18351-d223-4ec1-b70d-ffc1d554afa3" x="106.94" y="231.46" width="21.97" height="19.04"/><rect class="e7e18351-d223-4ec1-b70d-ffc1d554afa3" x="139.17" y="231.46" width="23.44" height="19.04"/><rect class="e7e18351-d223-4ec1-b70d-ffc1d554afa3" x="172.87" y="231.46" width="21.97" height="19.04"/><rect class="e7e18351-d223-4ec1-b70d-ffc1d554afa3" x="106.94" y="260.76" width="21.97" height="19.04"/><rect class="e7e18351-d223-4ec1-b70d-ffc1d554afa3" x="139.17" y="260.76" width="23.44" height="19.04"/><polygon class="e7e18351-d223-4ec1-b70d-ffc1d554afa3" points="205.1 231.47 205.1 260.76 172.87 260.76 172.87 279.81 205.36 279.81 227.07 279.81 227.07 261.38 227.07 231.47 205.1 231.47"/><rect class="e7e18351-d223-4ec1-b70d-ffc1d554afa3" x="106.94" y="291.53" width="21.97" height="19.04"/><rect class="e7e18351-d223-4ec1-b70d-ffc1d554afa3" x="139.17" y="291.53" width="55.67" height="19.04"/><rect class="e7e18351-d223-4ec1-b70d-ffc1d554afa3" x="205.1" y="291.53" width="21.97" height="19.04"/><line class="86b32eb4-3750-4b39-9393-215148abdc08" x1="118.66" y1="137.71" x2="193.38" y2="137.71"/><line class="86b32eb4-3750-4b39-9393-215148abdc08" x1="203.63" y1="137.71" x2="210.96" y2="137.71"/><line class="86b32eb4-3750-4b39-9393-215148abdc08" x1="140.64" y1="149.43" x2="181.66" y2="149.43"/><text class="2d23fed4-aea5-4488-96ab-7142ddb8bf42" transform="translate(341.47 161.97)"><tspan class="882c13b3-91e4-4e91-9e38-9e0e627dc078">Budget</tspan><tspan class="4e7f9a27-3ce6-4dea-8d20-16385d9fb850" x="439.47" y="0">Buddy</tspan></text><text class="6f5e1413-62b4-4cd3-8780-c18789d0866b" transform="translate(651.99 228.19)"><tspan class="882c13b3-91e4-4e91-9e38-9e0e627dc078">Save money</tspan><tspan class="28889759-d8c4-4ae7-bb14-a1a1f490164a" x="208.73" y="0" xml:space="preserve"> with your buddy!</tspan></text></svg>