<?xml version="1.0" encoding="utf-8"?>
<!-- Generator: Adobe Illustrator 21.0.0, SVG Export Plug-In . SVG Version: 6.00 Build 0)  -->
<svg version="1.1" id="Layer_1" xmlns="http://www.w3.org/2000/svg" xmlns:xlink="http://www.w3.org/1999/xlink" x="0px" y="0px"
	 viewBox="0 0 24 24" style="enable-background:new 0 0 24 24;" xml:space="preserve">
<style type="text/css">
	.st0{fill:#9C27B0;}
</style>
<path class="st0" d="M12,0C5.4,0,0,5.4,0,12s5.4,12,12,12s12-5.4,12-12S18.6,0,12,0z M12,22C6.5,22,2,17.5,2,12
	c0-2.4,0.8-4.6,2.3-6.3l11.2,11.2l0,0l2.9,2.9C16.6,21.2,14.4,22,12,22z M19.7,18.3L16.4,15c0.6-1.2,1.4-2.8,1.5-3
	c0.1-0.1,0.1-0.3,0.1-0.4c0-0.8-1.3-1.1-1.7-0.3c0,0-0.8,1.4-0.9,1.6c-0.1,0.2-0.5,0.2-0.5-0.1V7.5c0-0.8-1.3-0.8-1.3,0v4.7
	l-0.5-0.5l0-5.1c0-0.4-0.4-0.7-0.7-0.7c-0.4,0-0.7,0.2-0.7,0.7v3.6l-0.4-0.4V7.4c0-0.9-1.5-0.9-1.5,0v1L5.7,4.3C7.4,2.8,9.6,2,12,2
	c5.5,0,10,4.5,10,10C22,14.4,21.1,16.6,19.7,18.3z M8,10.8l6.8,6.8C14.4,17.8,14,18,13.3,18h-2.9C8.8,18,8,17.1,8,15.7
	C8,15.7,8,10.8,8,10.8z"/>
</svg>
